# xmcd CD database file generated by Grip 2.94
# 
# Track frame offsets:
#       180
#       29310
#       40360
#       50292
#       63945
#       76510
#       89002
#       104475
#       117192
#       126365
#       136930
#       150627
#       163250
#       176462
# 
# Disc length: 2454 seconds
# 
# Revision: 3
# Processed by: cddbd v1.4b41PL1 Copyright (c) Steve Scherf et al.
# Submitted via: Grip 2.94
# 
DISCID=b409940e
DTITLE=Roy Head - Slip Away: His Best Recordings
DYEAR=1900
DGENRE=
TTITLE0=Slip Away
TTITLE1=Why Did You Hurt Me
TTITLE2=Gotta Love You
TTITLE3=Rock Me Baby
TTITLE4=Easy Loving Girl
TTITLE5=Let Me Kiss You
TTITLE6=The Feeling is Gone
TTITLE7=Don't Make It Funky
TTITLE8=Money
TTITLE9=Before You Accuse Me
TTITLE10=Southbound Train to Memphis
TTITLE11=Too Good To Be True
TTITLE12=Bring It To Jerome
TTITLE13=Night Train
EXTD=
EXTT0=
EXTT1=
EXTT2=
EXTT3=
EXTT4=
EXTT5=
EXTT6=
EXTT7=
EXTT8=
EXTT9=
EXTT10=
EXTT11=
EXTT12=
EXTT13=
PLAYORDER=
